<svg xmlns="http://www.w3.org/2000/svg" viewBox="0 0 512 512" width="512" height="512">
  <defs>
    <linearGradient id="gold" x1="0%" y1="0%" x2="100%" y2="100%">
      <stop offset="0%" stop-color="#b8923a"/>
      <stop offset="40%" stop-color="#e8c97a"/>
      <stop offset="100%" stop-color="#c8a84e"/>
    </linearGradient>
  </defs>
  <rect width="512" height="512" fill="#0d0d0d" rx="108"/>
  <g transform="translate(-596, -222) scale(1.25)">
    <path fill="url(#gold)" opacity="0.95" d="M585.268 363.143C600.739 353.63 619.296 344.346 635.531 335.975C707.474 298.882 795.999 324.749 867.044 349.58C869.002 351.082 870.049 351.782 872.185 353.018C869.818 352.721 868.882 352.515 866.461 352.929L865.887 352.797C859.061 351.193 850.829 347.847 843.82 345.698C830.794 341.703 816.942 336.732 803.766 333.237C764.189 322.739 710.4 316.82 670.787 326.573C650.692 331.52 614.123 350.631 595.254 362.052C594.641 362.423 594.032 362.799 593.425 363.18L710.225 359.857C732.943 359.113 757.697 358.912 780.074 354.788C788.924 353.157 798.12 348.446 805.796 343.871C792.131 357.018 771.008 359.903 752.851 361.465C729.823 363.446 706.514 363.78 683.407 364.404L553.709 368.03L552.326 367.499L552.628 366.396C554.615 364.945 555.932 364.641 558.223 363.888C567.232 363.467 576.249 363.219 585.268 363.143Z"/>
    <path fill="url(#gold)" opacity="0.95" d="M627.143 440.796L691.881 437.624C704.401 437 726.264 436.61 737.426 433.714C745.399 431.712 752.784 427.849 758.975 422.441C772.054 411.083 779.834 394.705 794.253 383.139C816.215 365.521 850.308 365.543 877.09 368.582C881.433 368.532 893.934 369.737 898.506 370.389L894.298 371.23C880.748 370.47 868.104 370.552 854.565 370.361C828.476 371.28 807.432 373.246 788.826 393.677C777.016 406.645 762.252 430.768 744.072 435.784C718.352 442.881 686.964 440.449 660.344 442.859C653.611 443.427 642.604 443.602 636.193 443.508C632.304 442.766 628.317 443.882 624.732 442.879L624.644 442.206L627.143 440.796Z"/>
    <path fill="url(#gold)" opacity="0.9" d="M877.09 368.582C881.433 368.532 893.934 369.737 898.506 370.389L894.298 371.23C880.748 370.47 868.104 370.552 854.565 370.361C860.564 369.076 873.963 370.355 877.09 368.582Z"/>
    <path fill="url(#gold)" opacity="0.9" d="M438.401 437.902C438.541 427.519 434.825 420.235 433.978 410.664C432.833 397.733 451.414 388.17 461.623 383.633C491.986 370.139 525.221 365.268 558.223 363.888C555.932 364.641 554.615 364.945 552.628 366.396L552.326 367.499L553.709 368.03C552.184 368.445 529.063 370.26 525.768 370.603C502.855 372.984 479.698 379.496 458.82 389.131C451.74 392.399 440.334 398.692 437.903 406.285C435.362 414.22 441.139 423.588 441.199 431.285C441.235 435.828 437.58 442.242 437.753 446.835C437.844 449.238 442.974 451.302 444.035 453.423C442.761 453.567 442.307 453.171 441.194 452.556C433.309 448.198 434.647 443.888 438.401 437.902Z"/>
    <path fill="url(#gold)" opacity="0.9" d="M867.044 349.58C883.711 354.108 899.447 358.637 916.869 357.967C918.676 357.898 921.338 358.504 922.779 359.611C922.008 363.936 917.949 369.888 918.087 373.151C918.346 379.278 924.429 388.715 925.922 394.236C929.954 409.151 922.709 432.481 909.789 441.258C908.5 442.134 906.922 443.067 905.568 443.825C907.779 441.611 910.795 438.93 912.73 436.731C919.829 428.661 923.855 415.325 923.851 404.562C923.844 386.513 909.186 380.641 918.011 361.69C904.261 361.904 878.81 358.637 866.461 352.929C868.882 352.515 869.818 352.721 872.185 353.018C870.049 351.782 869.002 351.082 867.044 349.58Z"/>
    <path fill="url(#gold)" opacity="0.85" d="M578.663 455.448C588.632 441.294 611.302 441.481 627.143 440.796L624.644 442.206L624.732 442.879C628.317 443.882 632.304 442.766 636.193 443.508C633.027 444.117 628.306 444.002 624.939 444.217C605.274 445.475 595.06 442.501 578.663 455.448Z"/>
  </g>
</svg>